<svg fill="none" height="580" viewBox="0 0 1200 580" width="1200" xmlns="http://www.w3.org/2000/svg" xmlns:xlink="http://www.w3.org/1999/xlink"><clipPath id="a"><path d="m0 0h1200v580h-1200z"/></clipPath><g clip-path="url(#a)"><path d="m734.567 34.372c-28.692 61.724-23.266 100.422 16.275 116.094 59.313 23.508 200.347 32.911 259.298 83.906 58.95 50.994 238.7 11.572 269.44-75.95s86.09-222.422-205.77-222.422c-194.578 0-307.656 32.79-339.242 98.372z" fill="#fffa72"/><path d="m312.353 156.242c19.444 172.827 97.195 281.181 233.245 325.063 204.079 65.822 614.172 92.151 861.682 234.937 247.49 142.783 687.05 32.401 631.64-212.66-55.41-245.062-118.51-622.782-935.72-622.782-544.812 0-808.422 91.812-790.844 275.442z" fill="#0f225e"/><path d="m344.019 146.086c9.115 163.568 76.877 266.118 203.281 307.649 189.608 62.296 576.32 87.214 802.89 222.351 226.56 135.134 648.51 30.666 609.24-201.268-39.28-231.933-78.7-589.418-852.13-589.418-515.623 0-770.046 86.8935-763.279 260.686z" fill="#1b346c"/><path d="m376.487 135.93c.226 154.31 58.904 251.055 176.027 290.235 175.687 58.77 539.236 82.278 746.066 209.765 206.82 127.485 610.23 28.93 585.05-189.875s-44.07-556.055-773.72-556.055c-486.439 0-730.909 81.975-733.42 245.93z" fill="#27457a"/><path d="m409.69 125.774c-7.344 145.052 43.076 235.992 151.253 272.821 162.268 55.244 502.847 77.341 691.027 197.179 188.17 119.836 572.2 27.194 559.25-178.482-12.95-205.677-14.2-522.692-700.07-522.692-457.253 0-691.068 77.0565-701.457 231.174z" fill="#335788"/><path d="m443.57 115.618c-13.698 135.793 29.226 220.929 128.766 255.407 149.312 51.718 467.114 72.404 637.644 184.593 170.52 112.187 534.4 25.459 531.95-167.09-2.45-192.548 11.29-489.328-630.8-489.328-428.067 0-650.582 72.138-667.558 216.418z" fill="#3f6896"/><path d="m478.079 105.463c-18.922 126.534 17.214 205.865 108.403 237.992 136.786 48.192 431.988 67.468 585.798 172.008 153.81 104.537 496.81 23.722 503.25-155.698 6.45-179.42 32.72-455.965-565.59-455.965-398.882 0-609.497 67.2195-631.859 201.663z" fill="#4b7aa5"/><path d="m513.176 95.3068c-23.091 117.2752 6.92 190.8022 90.027 220.5782 124.662 44.666 397.417 62.531 535.387 159.422 137.96 96.888 459.41 21.987 473.26-144.305s50.34-422.602-504.2-422.602c-369.692 0-567.846 62.301-594.472 186.9068z" fill="#568bb3"/><path d="m548.827 85.151c-26.264 108.017-1.755 175.739 73.522 203.165 112.918 41.139 363.376 57.594 486.331 146.835 122.94 89.24 422.2 20.251 442.05-132.913 19.84-153.163 64.36-389.238-446.4-389.238-340.504 0-525.669 57.3825-555.501 172.151z" fill="#629cc1"/><path d="m585.004 74.9952c-28.493 98.7588-8.894 160.6748 58.793 185.7508 101.533 37.612 329.84 52.657 438.553 134.249 108.7 81.591 385.18 18.515 409.67-121.52s74.99-355.875-391.98-355.875c-311.325 0-482.999 52.464-515.034 157.3952z" fill="#6eaecf"/><path d="m621.684 64.8394c-29.821 89.4996-14.566 145.6116 45.76 168.3366 90.492 34.086 296.786 47.721 392.006 121.663 95.21 73.942 348.31 16.78 376.18-110.127s82.37-322.512-340.83-322.512c-282.131 0-439.835 47.5455-473.115 142.6394z" fill="#7abfdd"/><path d="m658.846 54.6836c-30.279 80.2414-18.824 130.5484 34.362 150.9224 79.78 30.56 264.194 42.784 346.632 109.078 82.43 66.292 311.62 15.043 341.63-98.735 30.01-113.779 86.62-289.149-292.8-289.149-252.947 0-396.219 42.627-429.822 127.8836z" fill="#86d1eb"/><path d="m696.478 44.5278c-29.897 70.9822-21.714 115.4852 24.545 133.5082 69.39 27.034 232.052 37.848 302.407 96.492 70.35 58.643 275.08 13.308 306.04-87.343 30.96-100.65 87.84-255.785-247.8-255.785-223.767 0-352.16 37.7085-385.191 113.1278z" fill="#92e2f9"/><g fill="#000"><path d="m0 0h1200v600h-1200z"/><path d="m0 0h1200v600h-1200z" fill-opacity=".3"/></g></g></svg>